<svg xmlns="http://www.w3.org/2000/svg" viewBox="0 0 172.05 171.5" fill="none">
  <path fill="#fec514" d="M67.64,73.81,105.29,91l38-33.28a42,42,0,0,0,.81-8.34,42.46,42.46,0,0,0-77.48-24L60.29,58.12Z"/>
  <path fill="#00bfb3" d="M28.67,113.68a43.14,43.14,0,0,0-.83,8.47,42.57,42.57,0,0,0,77.77,23.94l6.27-32.67-8.37-16L65.72,80.2Z"/>
  <path fill="#f04e98" d="M28.44,48.53l25.8,6.09,5.65-29.34A20.38,20.38,0,0,0,28.44,48.53"/>
  <path fill="#1ba9f5" d="M26.2,54.67a28.74,28.74,0,0,0-19.55,27A28.44,28.44,0,0,0,25,108.28l36.2-32.72-6.65-14.2Z"/>
  <path fill="#93c90e" d="M112.23,146.09a20.35,20.35,0,0,0,31.39-23.2l-25.78-6Z"/>
  <path fill="#0077cc" d="M117.47,110.1l28.38,6.63a28.7,28.7,0,0,0,19.55-27,28.41,28.41,0,0,0-18.34-26.54L109.94,95.69Z"/>
</svg>
